<?xml version="1.0" encoding="UTF-8"?>
<!DOCTYPE svg PUBLIC "-//W3C//DTD SVG 1.1//EN" "http://www.w3.org/Graphics/SVG/1.1/DTD/svg11.dtd">
<!-- Creator: CorelDRAW 2021 (64-Bit) -->
<svg xmlns="http://www.w3.org/2000/svg" xml:space="preserve" width="32.1066mm" height="9.369mm" version="1.1" style="shape-rendering:geometricPrecision; text-rendering:geometricPrecision; image-rendering:optimizeQuality; fill-rule:evenodd; clip-rule:evenodd"
viewBox="0 0 3210.66 936.9"
 xmlns:xlink="http://www.w3.org/1999/xlink"
 xmlns:xodm="http://www.corel.com/coreldraw/odm/2003">
 <defs>
  <style type="text/css">
   <![CDATA[
    .fil0 {fill:black}
   ]]>
  </style>
 </defs>
 <g id="Layer_x0020_1">
  <metadata id="CorelCorpID_0Corel-Layer"/>
  <path class="fil0" d="M139.01 411.98l9.61 0 138.46 -406.67 -29.95 0 -113.6 333.58 -113.03 -333.58 -29.95 0 138.46 406.67zm2075.47 524.92c33.43,0 57.23,-22.74 57.23,-55.24 0,-26.29 -15.87,-44.9 -50.14,-58.79 -26.63,-10.93 -37.4,-22.75 -37.4,-40.18 0,-18.31 12.18,-30.42 31.44,-30.42 15.02,0 27.48,7.38 38.81,23.93l15.3 -13c-14.16,-20.09 -32.58,-30.14 -53.82,-30.14 -30.6,0 -51.56,20.98 -51.56,51.41 0,25.4 14.73,43.42 48.72,57.31 27.2,11.22 38.82,23.63 38.82,41.65 0,20.68 -15.02,34.57 -37.11,34.57 -18.99,0 -34.28,-10.34 -47.59,-31.32l-15.31 13c14.17,23.93 37.11,37.22 62.61,37.22zm-316.66 -2.95l20.68 0 17.85 -51.99 71.96 0 17.84 51.99 21.82 0 -72.25 -203.84 -5.66 0 -72.24 203.84zm45.04 -71.2l29.47 -85.67 29.46 85.67 -58.93 0zm-216.93 74.15c29.46,0 54.67,-13.29 72.23,-34.86l-14.16 -12.7c-13.31,16.55 -33.14,27.18 -56.65,27.18 -42.78,0 -74.22,-34.56 -74.22,-81.83 0,-46.97 30.87,-81.24 73.09,-81.24 22.37,0 42.2,9.75 56.94,27.47l15 -13.29c-17.56,-21.27 -43.05,-34.57 -71.38,-34.57 -52.12,0 -94.9,44.91 -94.9,103.11 0,56.72 40.51,100.73 94.05,100.73zm-240.46 -2.95l19.83 0 0 -197.93 -19.83 0 0 197.93zm-203.05 0l19.82 0 0 -178.73 62.32 0 0 -19.2 -144.47 0 0 19.2 62.33 0 0 178.73zm-249.81 2.95c52.41,0 94.89,-46.08 94.89,-101.92 0,-56.42 -42.48,-101.92 -94.89,-101.92 -52.12,0 -94.9,45.79 -94.9,101.92 0,56.43 42.49,101.92 94.9,101.92zm0 -20.38c-41.93,0 -73.65,-34.86 -73.65,-81.54 0,-46.67 31.72,-81.53 73.65,-81.53 41.92,0 73.65,34.86 73.65,81.53 0,46.68 -31.73,81.54 -73.65,81.54zm0.57 -194.68l35.41 -40.18 -13.89 -12.41 -32 43.43 10.48 9.16zm-1033.18 -199.8l3209.42 0 0 25.4 -3209.42 0 0 -25.4zm3099.89 -116.55c64.43,0 110.77,-44.79 110.77,-107.26 0,-51.28 -31.09,-87.82 -98.91,-114.93 -54.25,-21.81 -78.55,-48.33 -78.55,-86.05 0,-40.08 27.13,-68.96 70.07,-68.96 31.09,0 57.09,15.91 78.57,47.74l22.6 -17.68c-26,-38.9 -60.47,-58.35 -101.17,-58.35 -58.77,0 -99.46,40.08 -99.46,99.02 0,50.09 29.95,86.64 96.65,112.57 55.95,21.81 80.81,48.92 80.81,88.41 0,45.38 -33.35,77.2 -80.81,77.2 -39.57,0 -72.91,-21.8 -97.22,-62.47l-22.6 18.27c26,45.97 70.08,72.49 119.25,72.49zm-636.94 0c80.82,0 135.64,-66.01 135.64,-163.25l0 -236.93 -29.39 0 0 233.98c0,82.51 -42.39,136.15 -106.81,136.15 -64.43,0 -106.26,-53.64 -106.26,-136.15l0 -233.98 -29.39 0 0 236.93c0,97.83 54.82,163.25 136.21,163.25zm-668.01 -5.3l29.38 0 0 -366.59 126.03 0 0 -28.29 -281.45 0 0 28.29 126.04 0 0 366.59zm-674.81 0l29.39 0 0 -168.56 61.03 0 109.08 168.56 35.03 0 -111.32 -172.69c54.25,-11.79 90.99,-53.63 90.99,-109.03 0,-66.6 -53.14,-113.16 -128.86,-113.16l-85.34 0 0 394.88zm29.39 -196.85l0 -169.74 55.95 0c59.34,0 99.47,34.18 99.47,84.87 0,51.86 -40.13,84.87 -99.47,84.87l-55.95 0zm-477.57 196.85l29.39 0 0 -394.88 -29.39 0 0 394.88z"/>
 </g>
</svg>
